<?xml version="1.0" encoding="UTF-8"?>
<svg width="1024px" height="1024px" viewBox="0 0 1024 1024" version="1.1" xmlns="http://www.w3.org/2000/svg" xmlns:xlink="http://www.w3.org/1999/xlink">
    <!-- Generator: Sketch 52.2 (67145) - http://www.bohemiancoding.com/sketch -->
    <title>1024 copy</title>
    <desc>Created with Sketch.</desc>
    <defs>
        <linearGradient x1="50%" y1="123.180129%" x2="50%" y2="29.7538063%" id="linearGradient-1">
            <stop stop-color="#AA0561" offset="0%"></stop>
            <stop stop-color="#4B296B" offset="75.2385057%"></stop>
            <stop stop-color="#1F3063" offset="100%"></stop>
        </linearGradient>
        <linearGradient x1="50%" y1="0%" x2="50%" y2="100%" id="linearGradient-2">
            <stop stop-color="#FBFBFB" offset="0%"></stop>
            <stop stop-color="#E4E4E4" offset="100%"></stop>
        </linearGradient>
        <linearGradient x1="50%" y1="8.41437228%" x2="50%" y2="100%" id="linearGradient-3">
            <stop stop-color="#FFFFFF" offset="0%"></stop>
            <stop stop-color="#E4E4E4" offset="100%"></stop>
        </linearGradient>
    </defs>
    <g id="1024-copy" stroke="none" stroke-width="1" fill="none" fill-rule="evenodd">
        <g id="页面"></g>
        <g id="分组-2" transform="translate(510.984581, 483.001485) rotate(-11.000000) translate(-510.984581, -483.001485) translate(74.984581, 68.001485)">
            <path d="M475.718134,62.7771206 L588.920001,241.700107 C590.284855,243.857349 592.423037,245.410952 594.896411,246.042567 L800.039729,298.429168 C825.190015,304.851693 840.371866,330.446513 833.949341,355.5968 C832.227517,362.339378 829.029912,368.615472 824.587418,373.971897 L689.419453,536.947283 C687.79014,538.911787 686.97363,541.424927 687.137175,543.971923 L700.706238,755.292547 C702.369557,781.196584 682.718572,803.54434 656.814535,805.207659 C649.868184,805.65369 642.909483,804.551259 636.441144,801.980009 L439.693976,723.770428 C437.321608,722.827381 434.678392,722.827381 432.306024,723.770428 L235.558856,801.980009 C211.437401,811.568604 184.110006,799.787393 174.521411,775.665938 C171.950162,769.197599 170.847731,762.238898 171.293762,755.292547 L184.862825,543.971923 C185.02637,541.424927 184.20986,538.911787 182.580547,536.947283 L47.4125817,373.971897 C30.8417712,353.992057 33.6053351,324.361901 53.5851746,307.791091 C58.9415998,303.348597 65.2176933,300.150992 71.9602715,298.429168 L277.103589,246.042567 C279.576963,245.410952 281.715145,243.857349 283.079999,241.700107 L396.281866,62.7771206 C410.160264,40.8414006 439.193343,34.3096507 461.129063,48.1880489 C467.012622,51.9104877 471.995696,56.8935614 475.718134,62.7771206 Z" id="路径" stroke="url(#linearGradient-2)" stroke-width="45" fill="url(#linearGradient-1)"></path>
            <path d="M449.386008,252.140586 L499.11789,352.732554 C499.846886,354.207084 501.254486,355.228736 502.882346,355.464841 L614.037746,371.586798 C622.236233,372.775905 627.918457,380.386052 626.729351,388.584539 C626.255005,391.854989 624.713924,394.877257 622.345484,397.181891 L541.936079,475.425076 C540.755181,476.574161 540.216215,478.231273 540.495214,479.855181 L559.481438,590.364088 C560.884183,598.528735 555.402579,606.284638 547.237932,607.687383 C543.988963,608.24558 540.646589,607.717934 537.727575,606.186025 L438.263061,553.986698 C436.808161,553.223161 435.070986,553.223161 433.616086,553.986698 L334.151572,606.186025 C326.816103,610.035705 317.748748,607.209915 313.899067,599.874445 C312.367159,596.955431 311.839513,593.613058 312.397709,590.364088 L331.383933,479.855181 C331.662933,478.231273 331.123967,476.574161 329.943068,475.425076 L249.533664,397.181891 C243.59637,391.404548 243.466705,381.907958 249.244049,375.970665 C251.548683,373.602225 254.570951,372.061143 257.841401,371.586798 L368.996802,355.464841 C370.624662,355.228736 372.032261,354.207084 372.761257,352.732554 L422.493139,252.140586 C426.164625,244.714325 435.161125,241.670478 442.587386,245.341964 C445.538176,246.800811 447.92716,249.189795 449.386008,252.140586 Z" id="路径" fill="url(#linearGradient-3)"></path>
        </g>
    </g>
</svg>