<?xml version="1.0" encoding="UTF-8"?>
<svg width="667px" height="703px" viewBox="0 0 667 703" version="1.1" xmlns="http://www.w3.org/2000/svg" xmlns:xlink="http://www.w3.org/1999/xlink">
    <!-- Generator: Sketch 52.2 (67145) - http://www.bohemiancoding.com/sketch -->
    <title>分组</title>
    <desc>Created with Sketch.</desc>
    <g id="Page-1" stroke="none" stroke-width="1" fill="none" fill-rule="evenodd">
        <g id="画板-copy" transform="translate(-179.000000, -161.000000)" fill="#FFFFFF">
            <g id="分组" transform="translate(179.000000, 161.000000)">
                <path d="M427.68,332.53 C429.55,358.93 422.51,385.11 407.22,407.22 C389.4,433.07 362.56,450.45 331.65,456.17 C324.39,457.49 317.24,458.15 310.09,458.15 C277.75,458.15 246.95,444.84 224.62,421.08 C220.55,421.85 216.48,422.51 212.52,423.06 C202.62,424.6 193.71,425.26 185.68,425.26 C160.16,425.26 144.21,418 137.94,403.59 C131.78,389.29 137.28,372.79 154.22,354.53 C160.49,347.82 170.94,347.49 177.54,353.65 C184.25,359.92 184.58,370.37 178.42,376.97 C172.37,383.46 169.84,387.86 168.96,390.28 C180.51,395.45 232.87,393.25 316.36,357.17 C399.85,321.09 437.36,284.35 441.43,272.36 C439.78,271.7 436.15,270.71 429.66,270.27 C420.53,269.83 413.49,262.02 414.04,253 C414.48,243.87 422.07,237.05 431.31,237.38 C452.98,238.48 466.73,245.74 472.45,258.94 C482.46,281.93 460.13,308.55 427.68,332.53 M289.08,224.73 C333.63,216.59 378.07,234.08 405.02,270.38 C410.41,277.75 408.87,288.09 401.5,293.48 C394.24,298.87 383.9,297.33 378.51,290.07 C359.04,263.89 327.14,251.24 295.13,257.18 C249.15,265.54 218.68,309.76 227.15,355.74 C228.69,364.65 222.86,373.23 213.84,374.88 C212.85,375.1 211.86,375.21 210.87,375.21 C203.06,375.21 196.13,369.6 194.59,361.68 C182.93,297.88 225.28,236.39 289.08,224.73 M537.35,309.54 L506.22,299.09 C501.71,282.7 495.22,266.86 486.64,252.01 L501.38,222.64 C503.36,218.68 502.59,213.84 499.4,210.65 L455.18,166.32 C451.99,163.24 447.15,162.47 443.08,164.45 L413.71,179.08 C398.86,170.5 383.13,164.01 366.63,159.61 L356.29,128.48 C354.86,124.19 350.9,121.33 346.39,121.33 L283.8,121.33 C279.4,121.33 275.33,124.19 274.01,128.48 L263.56,159.61 C247.17,164.01 231.33,170.61 216.48,179.08 L187.11,164.45 C183.15,162.47 178.31,163.24 175.12,166.43 L130.9,210.65 C127.71,213.84 126.94,218.68 128.92,222.64 L143.55,252.01 C134.97,266.86 128.48,282.7 124.08,299.09 L92.95,309.54 C88.66,310.97 85.8,314.93 85.8,319.33 L85.8,381.92 C85.8,386.43 88.66,390.39 92.95,391.82 L124.08,402.16 C128.26,417.67 134.31,432.63 142.12,446.71 C143,448.36 143.11,450.23 142.23,451.88 L128.92,478.72 C126.94,482.68 127.71,487.52 130.9,490.71 L175.12,534.93 C178.31,538.12 183.15,538.89 187.11,536.91 L216.48,522.17 C231.33,530.75 247.17,537.35 263.56,541.75 L274.01,572.88 C275.33,577.06 279.4,580.03 283.8,580.03 L346.39,580.03 C350.9,580.03 354.86,577.06 356.29,572.88 L366.63,541.75 C383.13,537.24 398.97,530.75 413.71,522.17 L443.08,536.91 C447.15,538.89 451.99,538.12 455.18,534.93 L499.4,490.71 C502.59,487.52 503.36,482.68 501.38,478.61 L487.3,450.56 C486.86,449.79 486.97,448.8 487.41,448.03 C495.55,433.51 501.93,418.22 506.22,402.16 L537.35,391.82 C541.53,390.39 544.5,386.43 544.5,381.92 L544.5,319.33 C544.5,314.93 541.53,310.86 537.35,309.54" id="Fill-1"></path>
                <path d="M393.8,354.86 C391.71,366.74 387.2,378.18 380.05,388.52 C367.18,407.11 347.93,419.65 325.71,423.72 C303.82,427.79 282.04,422.95 264.22,411.29 C285.12,405.13 307.23,397.1 329.45,387.42 C348.81,379.06 371.8,367.73 393.8,354.86" id="Fill-3"></path>
                <path d="M316.91,635.8 C160.38,635.8 33,508.42 33,351.89 C33,195.25 160.38,67.87 316.91,67.87 C473.55,67.87 600.93,195.25 600.93,351.89 C600.93,508.42 473.55,635.8 316.91,635.8 M633.6,362.78 L666.38,362.34 L665.83,318.34 L632.17,318.78 C631.4,311.3 630.41,303.82 628.98,296.56 L662.64,288.2 L651.97,245.52 L618.31,253.88 C614.68,242.44 610.28,231.22 605.22,220.44 L634.81,205.37 L614.9,166.21 L584.21,181.83 C529.87,96.36 435.6,38.72 327.8,35.2 L325.05,-7.10542736e-15 L281.16,3.52 L283.8,36.63 C273.9,37.62 264.22,39.05 254.76,41.03 L244.75,8.8 L202.73,21.89 L212.3,52.69 C200.75,56.65 189.53,61.38 178.64,66.66 L163.02,37.95 L124.3,58.96 L140.47,88.66 C134.31,92.84 128.26,97.13 122.43,101.86 L99.22,75.9 L66.44,105.27 L89.65,131.23 C81.29,139.81 73.48,148.83 66.22,158.29 L38.94,139.04 L13.64,175.12 L41.8,194.92 C15.18,241.23 0,294.91 0,351.89 C0,401.06 11.33,447.81 31.46,489.39 L1.65,508.2 L25.19,545.38 L53.35,527.56 C58.74,535.7 64.57,543.62 70.84,551.21 L46.75,575.3 L77.88,606.32 L100.76,583.44 C109.56,591.69 119.02,599.5 128.81,606.76 L110.55,634.04 L147.18,658.46 L165.88,630.41 C172.37,634.04 179.08,637.34 186.01,640.31 L173.8,672.87 L215.05,688.27 L227.15,655.71 C238.48,659.23 250.25,661.98 262.13,663.96 L257.84,696.85 L301.4,702.57 L305.8,668.47 C309.43,668.69 313.17,668.8 316.91,668.8 C434.39,668.8 537.13,604.67 591.91,509.41 L624.25,523.27 L641.63,482.9 L611.05,469.7 C614.9,460.68 618.09,451.44 620.73,441.98 L653.95,448.14 L662.09,404.91 L630.41,398.97 C632.17,387.09 633.38,375.1 633.6,362.78" id="Fill-5"></path>
            </g>
        </g>
    </g>
</svg>